<svg xmlns="http://www.w3.org/2000/svg" xmlns:xlink="http://www.w3.org/1999/xlink" width="500" zoomAndPan="magnify" viewBox="0 0 375 374.999991" height="500" preserveAspectRatio="xMidYMid meet" version="1.0"><defs><g/><clipPath id="id1"><path d="M 130.707031 120 L 169 120 L 169 148 L 130.707031 148 Z M 130.707031 120 " clip-rule="nonzero"/></clipPath><clipPath id="id2"><path d="M 141.460938 115.570312 L 243.941406 115.570312 L 243.941406 163.9375 L 141.460938 163.9375 Z M 141.460938 115.570312 " clip-rule="nonzero"/></clipPath><clipPath id="id3"><path d="M 145 221.722656 L 240.5625 221.722656 L 240.5625 228.734375 L 145 228.734375 Z M 145 221.722656 " clip-rule="nonzero"/></clipPath><clipPath id="id4"><path d="M 236 164 L 245 164 L 245 171 L 236 171 Z M 236 164 " clip-rule="nonzero"/></clipPath><clipPath id="id5"><path d="M 230.359375 158.535156 L 273.824219 160.277344 L 271.148438 226.972656 L 227.683594 225.230469 Z M 230.359375 158.535156 " clip-rule="nonzero"/></clipPath><clipPath id="id6"><path d="M 230.359375 158.535156 L 273.824219 160.277344 L 271.148438 226.972656 L 227.683594 225.230469 Z M 230.359375 158.535156 " clip-rule="nonzero"/></clipPath><clipPath id="id7"><path d="M 230.359375 158.535156 L 273.824219 160.277344 L 271.148438 226.972656 L 227.683594 225.230469 Z M 230.359375 158.535156 " clip-rule="nonzero"/></clipPath><clipPath id="id8"><path d="M 229 166 L 272 166 L 272 226 L 229 226 Z M 229 166 " clip-rule="nonzero"/></clipPath><clipPath id="id9"><path d="M 230.359375 158.535156 L 273.824219 160.277344 L 271.148438 226.972656 L 227.683594 225.230469 Z M 230.359375 158.535156 " clip-rule="nonzero"/></clipPath><clipPath id="id10"><path d="M 230.359375 158.535156 L 273.824219 160.277344 L 271.148438 226.972656 L 227.683594 225.230469 Z M 230.359375 158.535156 " clip-rule="nonzero"/></clipPath><clipPath id="id11"><path d="M 230.359375 158.535156 L 273.824219 160.277344 L 271.148438 226.972656 L 227.683594 225.230469 Z M 230.359375 158.535156 " clip-rule="nonzero"/></clipPath><clipPath id="id12"><path d="M 230.054688 166.167969 L 273.558594 167.914062 L 271.191406 227.003906 L 227.683594 225.257812 Z M 230.054688 166.167969 " clip-rule="nonzero"/></clipPath><clipPath id="id13"><path d="M 230.054688 166.167969 L 273.515625 167.914062 L 271.148438 226.957031 L 227.683594 225.214844 Z M 230.054688 166.167969 " clip-rule="nonzero"/></clipPath><clipPath id="id14"><path d="M 231 169 L 270 169 L 270 224 L 231 224 Z M 231 169 " clip-rule="nonzero"/></clipPath><clipPath id="id15"><path d="M 230.359375 158.535156 L 273.824219 160.277344 L 271.148438 226.972656 L 227.683594 225.230469 Z M 230.359375 158.535156 " clip-rule="nonzero"/></clipPath><clipPath id="id16"><path d="M 230.359375 158.535156 L 273.824219 160.277344 L 271.148438 226.972656 L 227.683594 225.230469 Z M 230.359375 158.535156 " clip-rule="nonzero"/></clipPath><clipPath id="id17"><path d="M 230.359375 158.535156 L 273.824219 160.277344 L 271.148438 226.972656 L 227.683594 225.230469 Z M 230.359375 158.535156 " clip-rule="nonzero"/></clipPath><clipPath id="id18"><path d="M 238 158 L 243 158 L 243 176 L 238 176 Z M 238 158 " clip-rule="nonzero"/></clipPath><clipPath id="id19"><path d="M 230.359375 158.535156 L 273.824219 160.277344 L 271.148438 226.972656 L 227.683594 225.230469 Z M 230.359375 158.535156 " clip-rule="nonzero"/></clipPath><clipPath id="id20"><path d="M 230.359375 158.535156 L 273.824219 160.277344 L 271.148438 226.972656 L 227.683594 225.230469 Z M 230.359375 158.535156 " clip-rule="nonzero"/></clipPath><clipPath id="id21"><path d="M 230.359375 158.535156 L 273.824219 160.277344 L 271.148438 226.972656 L 227.683594 225.230469 Z M 230.359375 158.535156 " clip-rule="nonzero"/></clipPath><clipPath id="id22"><path d="M 236 159 L 243 159 L 243 176 L 236 176 Z M 236 159 " clip-rule="nonzero"/></clipPath><clipPath id="id23"><path d="M 230.359375 158.535156 L 273.824219 160.277344 L 271.148438 226.972656 L 227.683594 225.230469 Z M 230.359375 158.535156 " clip-rule="nonzero"/></clipPath><clipPath id="id24"><path d="M 230.359375 158.535156 L 273.824219 160.277344 L 271.148438 226.972656 L 227.683594 225.230469 Z M 230.359375 158.535156 " clip-rule="nonzero"/></clipPath><clipPath id="id25"><path d="M 230.359375 158.535156 L 273.824219 160.277344 L 271.148438 226.972656 L 227.683594 225.230469 Z M 230.359375 158.535156 " clip-rule="nonzero"/></clipPath><clipPath id="id26"><path d="M 239 186 L 256 186 L 256 196 L 239 196 Z M 239 186 " clip-rule="nonzero"/></clipPath><clipPath id="id27"><path d="M 230.359375 158.535156 L 273.824219 160.277344 L 271.148438 226.972656 L 227.683594 225.230469 Z M 230.359375 158.535156 " clip-rule="nonzero"/></clipPath><clipPath id="id28"><path d="M 230.359375 158.535156 L 273.824219 160.277344 L 271.148438 226.972656 L 227.683594 225.230469 Z M 230.359375 158.535156 " clip-rule="nonzero"/></clipPath><clipPath id="id29"><path d="M 230.359375 158.535156 L 273.824219 160.277344 L 271.148438 226.972656 L 227.683594 225.230469 Z M 230.359375 158.535156 " clip-rule="nonzero"/></clipPath><clipPath id="id30"><path d="M 242 193 L 259 193 L 259 203 L 242 203 Z M 242 193 " clip-rule="nonzero"/></clipPath><clipPath id="id31"><path d="M 230.359375 158.535156 L 273.824219 160.277344 L 271.148438 226.972656 L 227.683594 225.230469 Z M 230.359375 158.535156 " clip-rule="nonzero"/></clipPath><clipPath id="id32"><path d="M 230.359375 158.535156 L 273.824219 160.277344 L 271.148438 226.972656 L 227.683594 225.230469 Z M 230.359375 158.535156 " clip-rule="nonzero"/></clipPath><clipPath id="id33"><path d="M 230.359375 158.535156 L 273.824219 160.277344 L 271.148438 226.972656 L 227.683594 225.230469 Z M 230.359375 158.535156 " clip-rule="nonzero"/></clipPath><clipPath id="id34"><path d="M 244 199 L 261 199 L 261 210 L 244 210 Z M 244 199 " clip-rule="nonzero"/></clipPath><clipPath id="id35"><path d="M 230.359375 158.535156 L 273.824219 160.277344 L 271.148438 226.972656 L 227.683594 225.230469 Z M 230.359375 158.535156 " clip-rule="nonzero"/></clipPath><clipPath id="id36"><path d="M 230.359375 158.535156 L 273.824219 160.277344 L 271.148438 226.972656 L 227.683594 225.230469 Z M 230.359375 158.535156 " clip-rule="nonzero"/></clipPath><clipPath id="id37"><path d="M 230.359375 158.535156 L 273.824219 160.277344 L 271.148438 226.972656 L 227.683594 225.230469 Z M 230.359375 158.535156 " clip-rule="nonzero"/></clipPath></defs><path fill="#92b758" d="M 174.398438 103.652344 C 173.433594 102.730469 171.875 103.300781 171.640625 104.621094 C 170.933594 108.644531 167.894531 114.003906 163.914062 119.386719 C 157.746094 127.726562 166.40625 135.289062 166.539062 135.339844 C 166.546875 135.34375 166.554688 135.34375 166.558594 135.347656 C 166.476562 137.394531 166.8125 139.445312 167.738281 141.519531 C 168.058594 142.238281 169.210938 141.84375 168.898438 141.109375 C 168.074219 139.164062 167.746094 137.386719 167.742188 135.699219 C 178.789062 138.863281 185.140625 125.304688 182.34375 116.132812 C 180.574219 110.324219 176.953125 106.074219 174.398438 103.652344 " fill-opacity="1" fill-rule="nonzero"/><g clip-path="url(#id1)"><path fill="#92b758" d="M 130.800781 122.210938 C 130.714844 120.691406 132.351562 119.753906 133.660156 120.519531 C 137.660156 122.855469 144.519531 124.140625 152.089844 124.625 C 163.828125 125.371094 164.007812 138.460938 163.953125 138.617188 C 163.949219 138.625 163.945312 138.632812 163.941406 138.640625 C 165.769531 140.070312 167.296875 141.871094 168.414062 144.195312 C 168.800781 145.003906 167.613281 145.71875 167.207031 144.90625 C 166.128906 142.761719 164.832031 141.171875 163.378906 139.929688 C 158.007812 151.875 141.628906 147.460938 135.753906 138.292969 C 132.035156 132.488281 131.023438 126.214844 130.800781 122.210938 " fill-opacity="1" fill-rule="nonzero"/></g><path fill="#749441" d="M 141.226562 129.664062 L 162.03125 141.621094 C 157.792969 132.3125 141.226562 129.664062 141.226562 129.664062 " fill-opacity="1" fill-rule="nonzero"/><path fill="#749441" d="M 173.550781 115.378906 C 173.550781 115.378906 165.664062 126.441406 167.742188 135.699219 L 173.550781 115.378906 " fill-opacity="1" fill-rule="nonzero"/><path fill="#c4c5c0" d="M 235.410156 223.117188 L 150.101562 223.117188 L 150.101562 157.167969 L 192.757812 124.5625 L 235.410156 157.167969 L 235.410156 223.117188 " fill-opacity="1" fill-rule="nonzero"/><path fill="#c4c5c0" d="M 225.089844 142.871094 L 213.671875 142.871094 L 213.671875 124.5625 L 225.089844 124.5625 L 225.089844 142.871094 " fill-opacity="1" fill-rule="nonzero"/><path fill="#92b758" d="M 227.019531 127.121094 L 211.746094 127.121094 L 211.746094 120.832031 L 227.019531 120.832031 L 227.019531 127.121094 " fill-opacity="1" fill-rule="nonzero"/><g clip-path="url(#id2)"><path fill="#484a49" d="M 238.4375 163.769531 L 192.757812 127.074219 L 147.074219 163.769531 L 141.570312 156.867188 L 192.757812 115.75 L 243.941406 156.867188 L 238.4375 163.769531 " fill-opacity="1" fill-rule="nonzero"/></g><g clip-path="url(#id3)"><path fill="#749441" d="M 240.503906 228.734375 L 145.011719 228.734375 L 145.011719 221.828125 L 240.503906 221.828125 L 240.503906 228.734375 " fill-opacity="1" fill-rule="nonzero"/></g><path fill="#8a8e8f" d="M 150.101562 212.066406 L 161.246094 212.066406 L 161.246094 216.984375 L 150.101562 216.984375 L 150.101562 212.066406 " fill-opacity="1" fill-rule="nonzero"/><path fill="#8a8e8f" d="M 157.808594 201.839844 L 168.953125 201.839844 L 168.953125 206.757812 L 157.808594 206.757812 L 157.808594 201.839844 " fill-opacity="1" fill-rule="nonzero"/><path fill="#8a8e8f" d="M 208.351562 209.605469 L 219.496094 209.605469 L 219.496094 214.523438 L 208.351562 214.523438 L 208.351562 209.605469 " fill-opacity="1" fill-rule="nonzero"/><path fill="#8a8e8f" d="M 215.320312 201.839844 L 226.46875 201.839844 L 226.46875 206.757812 L 215.320312 206.757812 L 215.320312 201.839844 " fill-opacity="1" fill-rule="nonzero"/><path fill="#8a8e8f" d="M 216.605469 171.378906 L 227.75 171.378906 L 227.75 176.296875 L 216.605469 176.296875 L 216.605469 171.378906 " fill-opacity="1" fill-rule="nonzero"/><path fill="#8a8e8f" d="M 150.101562 167.972656 L 161.246094 167.972656 L 161.246094 172.890625 L 150.101562 172.890625 L 150.101562 167.972656 " fill-opacity="1" fill-rule="nonzero"/><path fill="#8a8e8f" d="M 219.449219 180.347656 L 230.59375 180.347656 L 230.59375 185.265625 L 219.449219 185.265625 L 219.449219 180.347656 " fill-opacity="1" fill-rule="nonzero"/><path fill="#ffffff" d="M 175.371094 161.835938 L 210.140625 161.835938 L 210.140625 196.746094 L 175.371094 196.746094 L 175.371094 161.835938 " fill-opacity="1" fill-rule="nonzero"/><path fill="#92b758" d="M 177.28125 163.753906 L 208.230469 163.753906 L 208.230469 194.828125 L 177.28125 194.828125 L 177.28125 163.753906 " fill-opacity="1" fill-rule="nonzero"/><path fill="#ffffff" d="M 193.949219 195.640625 L 191.5625 195.640625 L 191.5625 162.683594 L 193.949219 162.683594 L 193.949219 195.640625 " fill-opacity="1" fill-rule="nonzero"/><path fill="#ffffff" d="M 209.167969 180.359375 L 176.34375 180.359375 L 176.34375 177.964844 L 209.167969 177.964844 L 209.167969 180.359375 " fill-opacity="1" fill-rule="nonzero"/><g clip-path="url(#id4)"><g clip-path="url(#id5)"><g clip-path="url(#id6)"><g clip-path="url(#id7)"><path fill="#484a49" d="M 237 170.375 C 237.191406 170.324219 237.335938 170.15625 237.351562 169.949219 C 237.5625 167.125 238.1875 165.429688 239.117188 165.179688 C 240.492188 164.804688 242.636719 167.398438 243.28125 168.335938 C 243.429688 168.550781 243.726562 168.609375 243.945312 168.457031 C 244.160156 168.308594 244.214844 168.007812 244.066406 167.792969 C 243.773438 167.363281 241.140625 163.636719 238.867188 164.253906 C 237.460938 164.636719 236.652344 166.476562 236.398438 169.878906 C 236.378906 170.140625 236.578125 170.371094 236.839844 170.390625 C 236.894531 170.394531 236.949219 170.390625 237 170.375 " fill-opacity="1" fill-rule="nonzero"/></g></g></g></g><g clip-path="url(#id8)"><g clip-path="url(#id9)"><g clip-path="url(#id10)"><g clip-path="url(#id11)"><g clip-path="url(#id12)"><g clip-path="url(#id13)"><path fill="#92b758" d="M 239.839844 177.792969 C 239.304688 176.183594 240.171875 174.441406 241.777344 173.902344 C 243.382812 173.367188 245.117188 174.234375 245.652344 175.84375 C 246.1875 177.453125 245.320312 179.195312 243.71875 179.734375 C 242.113281 180.269531 240.375 179.402344 239.839844 177.792969 Z M 229.464844 187 L 241.542969 223.292969 C 242.210938 225.300781 244.378906 226.382812 246.378906 225.714844 L 269.03125 218.121094 C 271.035156 217.449219 272.117188 215.277344 271.449219 213.269531 L 259.371094 176.980469 C 259.050781 176.015625 258.359375 175.21875 257.453125 174.765625 L 241.988281 167.019531 C 240.296875 166.171875 238.242188 166.863281 237.394531 168.558594 L 229.671875 184.074219 C 229.21875 184.984375 229.144531 186.035156 229.464844 187 " fill-opacity="1" fill-rule="nonzero"/></g></g></g></g></g></g><g clip-path="url(#id14)"><g clip-path="url(#id15)"><g clip-path="url(#id16)"><g clip-path="url(#id17)"><path fill="#749441" d="M 244.765625 221.824219 C 244.304688 221.59375 243.960938 221.195312 243.800781 220.707031 L 232.707031 187.378906 C 232.484375 186.703125 232.535156 185.980469 232.851562 185.34375 L 239.464844 172.058594 C 239.742188 171.503906 240.214844 171.089844 240.804688 170.894531 C 241.390625 170.695312 242.019531 170.742188 242.570312 171.019531 L 255.8125 177.648438 C 256.449219 177.964844 256.921875 178.515625 257.144531 179.191406 L 268.238281 212.519531 C 268.574219 213.527344 268.03125 214.621094 267.023438 214.960938 L 246.230469 221.925781 C 245.746094 222.089844 245.226562 222.054688 244.765625 221.824219 Z M 269.40625 212.128906 L 258.3125 178.800781 C 257.984375 177.8125 257.292969 177.011719 256.363281 176.546875 L 243.121094 169.914062 C 242.273438 169.488281 241.3125 169.421875 240.414062 169.722656 C 239.515625 170.023438 238.789062 170.65625 238.363281 171.507812 L 231.75 184.792969 C 231.289062 185.722656 231.214844 186.78125 231.542969 187.769531 L 242.632812 221.101562 C 243.058594 222.378906 244.230469 223.207031 245.5 223.257812 C 245.871094 223.273438 246.25 223.21875 246.621094 223.097656 L 267.414062 216.128906 C 269.0625 215.578125 269.953125 213.78125 269.40625 212.128906 " fill-opacity="1" fill-rule="nonzero"/></g></g></g></g><g clip-path="url(#id18)"><g clip-path="url(#id19)"><g clip-path="url(#id20)"><g clip-path="url(#id21)"><path fill="#484a49" d="M 239.039062 158.960938 C 238.773438 159.023438 238.621094 159.300781 238.707031 159.5625 C 241.53125 167.972656 241.851562 175.148438 241.855469 175.234375 C 241.867188 175.5 242.089844 175.703125 242.351562 175.695312 C 242.375 175.691406 242.398438 175.691406 242.421875 175.6875 C 242.652344 175.644531 242.820312 175.4375 242.808594 175.195312 C 242.808594 175.109375 242.480469 167.804688 239.613281 159.257812 C 239.539062 159.035156 239.304688 158.902344 239.074219 158.953125 C 239.0625 158.957031 239.050781 158.960938 239.039062 158.960938 " fill-opacity="1" fill-rule="nonzero"/></g></g></g></g><g clip-path="url(#id22)"><g clip-path="url(#id23)"><g clip-path="url(#id24)"><g clip-path="url(#id25)"><path fill="#484a49" d="M 236.847656 159.5 C 236.84375 159.5 236.839844 159.5 236.835938 159.5 C 236.597656 159.5625 236.449219 159.808594 236.507812 160.050781 C 237.675781 164.902344 239.390625 170.058594 241.902344 175.417969 C 242.007812 175.644531 242.265625 175.75 242.496094 175.664062 C 242.507812 175.660156 242.523438 175.65625 242.535156 175.648438 C 242.773438 175.535156 242.878906 175.25 242.765625 175.011719 C 240.265625 169.679688 238.566406 164.597656 237.410156 159.832031 C 237.347656 159.578125 237.097656 159.433594 236.847656 159.5 " fill-opacity="1" fill-rule="nonzero"/></g></g></g></g><g clip-path="url(#id26)"><g clip-path="url(#id27)"><g clip-path="url(#id28)"><g clip-path="url(#id29)"><path fill="#ffffff" d="M 239.410156 191.957031 C 239.492188 191.742188 239.632812 191.59375 239.832031 191.503906 L 240.445312 191.292969 L 240.914062 191.128906 C 241.050781 191.066406 241.210938 191 241.398438 190.933594 C 241.730469 190.820312 242.222656 190.621094 242.878906 190.34375 L 244.371094 189.773438 C 245.136719 189.507812 246.289062 189.132812 247.828125 188.652344 C 249.210938 188.242188 250.367188 187.875 251.292969 187.554688 C 251.511719 187.476562 251.832031 187.339844 252.253906 187.140625 C 252.695312 186.933594 253.015625 186.796875 253.21875 186.726562 C 254.332031 186.339844 255.003906 186.476562 255.230469 187.136719 C 255.410156 187.65625 255.515625 188.292969 255.546875 189.046875 C 255.578125 189.800781 255.453125 190.230469 255.171875 190.328125 C 255.015625 190.382812 254.847656 190.363281 254.667969 190.277344 C 254.488281 190.191406 254.324219 190.066406 254.183594 189.90625 C 254.191406 189.164062 254.140625 188.507812 254.035156 187.949219 C 253.804688 188.046875 253.46875 188.171875 253.03125 188.324219 C 252.40625 188.539062 251.835938 188.726562 251.332031 188.886719 C 250.5625 189.101562 249.988281 189.273438 249.613281 189.40625 L 249.261719 189.605469 L 249.414062 189.976562 C 249.472656 190.09375 249.535156 190.25 249.601562 190.4375 C 249.863281 191.191406 249.773438 191.648438 249.332031 191.800781 C 249.160156 191.859375 248.992188 191.839844 248.824219 191.738281 C 248.660156 191.636719 248.539062 191.476562 248.460938 191.257812 C 248.363281 190.972656 248.304688 190.746094 248.28125 190.582031 L 248.078125 189.988281 C 247.679688 190.164062 247.089844 190.386719 246.308594 190.65625 C 245.523438 190.929688 244.816406 191.167969 244.183594 191.367188 C 243.210938 191.652344 242.488281 191.878906 242.019531 192.042969 C 241.140625 192.347656 240.707031 192.515625 240.71875 192.546875 L 241.011719 193.316406 C 241.117188 193.578125 241.238281 193.898438 241.367188 194.273438 C 241.574219 194.871094 241.488281 195.234375 241.113281 195.367188 C 240.890625 195.441406 240.691406 195.402344 240.503906 195.246094 C 240.320312 195.089844 240.175781 194.871094 240.078125 194.589844 L 239.386719 192.585938 C 239.320312 192.378906 239.324219 192.171875 239.410156 191.957031 " fill-opacity="1" fill-rule="nonzero"/></g></g></g></g><g clip-path="url(#id30)"><g clip-path="url(#id31)"><g clip-path="url(#id32)"><g clip-path="url(#id33)"><path fill="#ffffff" d="M 242.164062 200.214844 C 242.132812 199.796875 242.144531 199.460938 242.203125 199.214844 C 242.511719 197.925781 244.171875 196.761719 247.183594 195.714844 L 247.816406 195.496094 L 248.546875 195.242188 L 249.109375 195.046875 C 249.738281 194.828125 250.300781 194.640625 250.800781 194.484375 C 251.296875 194.328125 251.847656 194.175781 252.441406 194.019531 C 253.070312 193.855469 253.59375 193.753906 254.007812 193.714844 C 254.425781 193.675781 254.914062 193.679688 255.476562 193.734375 C 255.996094 193.765625 256.429688 193.875 256.773438 194.0625 C 257.121094 194.25 257.457031 194.535156 257.78125 194.914062 C 258.085938 195.246094 258.339844 195.703125 258.542969 196.285156 C 258.625 196.523438 258.632812 196.722656 258.566406 196.886719 C 258.5 197.050781 258.378906 197.164062 258.207031 197.222656 C 258.050781 197.277344 257.890625 197.273438 257.730469 197.214844 C 257.570312 197.15625 257.457031 197.058594 257.394531 196.925781 L 257.011719 195.816406 C 256.902344 195.5 256.613281 195.292969 256.136719 195.195312 C 255.664062 195.09375 255.097656 195.105469 254.4375 195.230469 C 253.207031 195.425781 252.230469 195.652344 251.511719 195.902344 L 251.394531 195.941406 L 249.121094 196.679688 C 248.433594 196.882812 247.671875 197.128906 246.824219 197.425781 C 246.226562 197.632812 245.75 197.824219 245.390625 198 C 244.851562 198.273438 244.429688 198.574219 244.117188 198.890625 C 243.757812 199.226562 243.566406 199.65625 243.535156 200.175781 C 243.519531 200.445312 243.5625 200.722656 243.660156 201.003906 C 243.722656 201.175781 243.84375 201.328125 244.027344 201.457031 C 244.097656 201.660156 244.113281 201.847656 244.074219 202.011719 C 244.03125 202.171875 243.925781 202.285156 243.753906 202.34375 C 243.144531 202.558594 242.6875 202.230469 242.390625 201.367188 C 242.269531 201.019531 242.195312 200.636719 242.164062 200.214844 " fill-opacity="1" fill-rule="nonzero"/></g></g></g></g><g clip-path="url(#id34)"><g clip-path="url(#id35)"><g clip-path="url(#id36)"><g clip-path="url(#id37)"><path fill="#ffffff" d="M 245.96875 207.808594 C 246.277344 207.964844 246.648438 208.039062 247.085938 208.03125 C 247.984375 208.050781 248.910156 207.933594 249.859375 207.671875 C 250.683594 207.472656 251.386719 207.273438 251.96875 207.074219 C 252.671875 206.828125 253.578125 206.453125 254.683594 205.945312 C 255.859375 205.429688 256.746094 205.070312 257.339844 204.863281 L 257.761719 204.71875 C 258.347656 204.480469 258.796875 204.097656 259.109375 203.578125 C 259.417969 203.054688 259.484375 202.527344 259.300781 201.992188 C 259.113281 201.457031 258.6875 201.210938 258.015625 201.25 C 257.476562 201.261719 256.820312 201.398438 256.054688 201.667969 C 255.753906 201.769531 255.507812 201.867188 255.308594 201.953125 L 254.675781 202.171875 L 253.578125 202.5 C 253.234375 202.582031 252.871094 202.691406 252.476562 202.828125 C 251.632812 203.121094 250.800781 203.4375 249.988281 203.773438 C 248.832031 204.242188 247.742188 204.796875 246.714844 205.4375 C 245.644531 206.089844 245.191406 206.660156 245.359375 207.148438 C 245.457031 207.433594 245.660156 207.652344 245.96875 207.808594 Z M 244.402344 206.320312 C 244.539062 205.882812 244.792969 205.480469 245.15625 205.105469 C 245.953125 204.320312 246.898438 203.675781 247.988281 203.171875 C 249.007812 202.660156 250.007812 202.234375 250.996094 201.890625 C 251.183594 201.824219 251.34375 201.777344 251.476562 201.75 L 251.898438 201.605469 C 251.976562 201.578125 252.011719 201.554688 252.007812 201.539062 L 252.429688 201.394531 L 254.085938 200.84375 C 254.589844 200.6875 255.414062 200.472656 256.546875 200.199219 C 257.328125 200.019531 258.121094 199.945312 258.921875 199.984375 C 259.273438 199.984375 259.5625 200.042969 259.785156 200.160156 C 260.007812 200.277344 260.160156 200.441406 260.234375 200.664062 C 260.453125 201.292969 260.535156 201.898438 260.480469 202.480469 C 260.425781 203.0625 260.253906 203.597656 259.96875 204.085938 C 259.683594 204.535156 259.292969 204.96875 258.796875 205.386719 C 258.300781 205.808594 257.75 206.175781 257.136719 206.492188 C 256.511719 206.816406 255.832031 207.105469 255.09375 207.359375 L 254.90625 207.425781 C 254.421875 207.59375 253.984375 207.753906 253.597656 207.90625 L 252.265625 208.394531 C 247.75 209.964844 245.128906 209.695312 244.402344 207.585938 C 244.261719 207.175781 244.261719 206.753906 244.402344 206.320312 " fill-opacity="1" fill-rule="nonzero"/></g></g></g></g><g fill="#92b758" fill-opacity="1"><g transform="translate(98.71792, 260.484196)"><g><path d="M 12.734375 -12.828125 L 21.3125 -12.828125 L 21.3125 -4.515625 C 20.03125 -2.890625 18.609375 -1.660156 17.046875 -0.828125 C 15.492188 0.00390625 13.863281 0.421875 12.15625 0.421875 C 10.625 0.421875 9.175781 0.109375 7.8125 -0.515625 C 6.445312 -1.148438 5.257812 -2 4.25 -3.0625 C 3.25 -4.132812 2.453125 -5.378906 1.859375 -6.796875 C 1.273438 -8.210938 0.984375 -9.722656 0.984375 -11.328125 C 0.984375 -12.929688 1.273438 -14.4375 1.859375 -15.84375 C 2.453125 -17.25 3.25 -18.484375 4.25 -19.546875 C 5.257812 -20.617188 6.445312 -21.460938 7.8125 -22.078125 C 9.175781 -22.703125 10.625 -23.015625 12.15625 -23.015625 C 13.613281 -23.015625 14.984375 -22.742188 16.265625 -22.203125 C 17.554688 -21.671875 18.8125 -20.785156 20.03125 -19.546875 L 17.21875 -16.125 C 16.320312 -16.957031 15.476562 -17.515625 14.6875 -17.796875 C 13.894531 -18.085938 13.0625 -18.234375 12.1875 -18.234375 C 11.289062 -18.234375 10.453125 -18.050781 9.671875 -17.6875 C 8.898438 -17.332031 8.222656 -16.84375 7.640625 -16.21875 C 7.066406 -15.601562 6.613281 -14.875 6.28125 -14.03125 C 5.957031 -13.1875 5.796875 -12.285156 5.796875 -11.328125 C 5.796875 -10.367188 5.957031 -9.472656 6.28125 -8.640625 C 6.613281 -7.804688 7.066406 -7.070312 7.640625 -6.4375 C 8.222656 -5.8125 8.898438 -5.316406 9.671875 -4.953125 C 10.453125 -4.597656 11.289062 -4.421875 12.1875 -4.421875 C 12.976562 -4.421875 13.765625 -4.5625 14.546875 -4.84375 C 15.328125 -5.132812 16.109375 -5.609375 16.890625 -6.265625 L 16.890625 -8.734375 L 12.734375 -8.734375 Z M 12.734375 -12.828125 "/></g></g></g><g fill="#92b758" fill-opacity="1"><g transform="translate(121.112416, 260.484196)"><g><path d="M 5.796875 -13.65625 C 6.003906 -14 6.242188 -14.328125 6.515625 -14.640625 C 6.796875 -14.953125 7.128906 -15.226562 7.515625 -15.46875 C 7.898438 -15.71875 8.335938 -15.914062 8.828125 -16.0625 C 9.316406 -16.207031 9.875 -16.28125 10.5 -16.28125 C 11.21875 -16.28125 12.0625 -16.15625 13.03125 -15.90625 L 12.609375 -11.96875 C 12.367188 -12.007812 12.132812 -12.0625 11.90625 -12.125 C 11.707031 -12.164062 11.488281 -12.203125 11.25 -12.234375 C 11.019531 -12.265625 10.8125 -12.28125 10.625 -12.28125 C 9.9375 -12.28125 9.300781 -12.1875 8.71875 -12 C 8.132812 -11.8125 7.628906 -11.546875 7.203125 -11.203125 C 6.773438 -10.859375 6.429688 -10.445312 6.171875 -9.96875 C 5.921875 -9.488281 5.796875 -8.972656 5.796875 -8.421875 L 5.796875 0 L 1.375 0 L 1.375 -15.875 L 5.375 -15.875 Z M 5.796875 -13.65625 "/></g></g></g><g fill="#92b758" fill-opacity="1"><g transform="translate(134.29317, 260.484196)"><g><path d="M 9.28125 -16.3125 C 10.476562 -16.3125 11.566406 -16.070312 12.546875 -15.59375 C 13.523438 -15.113281 14.363281 -14.484375 15.0625 -13.703125 C 15.769531 -12.929688 16.316406 -12.035156 16.703125 -11.015625 C 17.085938 -10.003906 17.28125 -8.96875 17.28125 -7.90625 C 17.28125 -7.257812 17.195312 -6.578125 17.03125 -5.859375 L 5.703125 -5.859375 C 6.128906 -5.128906 6.734375 -4.515625 7.515625 -4.015625 C 8.304688 -3.515625 9.160156 -3.265625 10.078125 -3.265625 C 10.992188 -3.265625 11.796875 -3.335938 12.484375 -3.484375 C 13.179688 -3.640625 13.84375 -3.832031 14.46875 -4.0625 L 15.9375 -1.34375 C 15.144531 -0.789062 14.242188 -0.363281 13.234375 -0.0625 C 12.222656 0.238281 11.140625 0.390625 9.984375 0.390625 C 8.722656 0.390625 7.546875 0.171875 6.453125 -0.265625 C 5.367188 -0.703125 4.421875 -1.296875 3.609375 -2.046875 C 2.804688 -2.796875 2.164062 -3.679688 1.6875 -4.703125 C 1.21875 -5.722656 0.984375 -6.8125 0.984375 -7.96875 C 0.984375 -9.09375 1.195312 -10.160156 1.625 -11.171875 C 2.050781 -12.191406 2.644531 -13.078125 3.40625 -13.828125 C 4.164062 -14.585938 5.046875 -15.191406 6.046875 -15.640625 C 7.046875 -16.085938 8.125 -16.3125 9.28125 -16.3125 Z M 12.890625 -9.28125 C 12.640625 -10.195312 12.179688 -10.941406 11.515625 -11.515625 C 10.859375 -12.097656 10.113281 -12.390625 9.28125 -12.390625 C 8.425781 -12.390625 7.648438 -12.097656 6.953125 -11.515625 C 6.265625 -10.941406 5.789062 -10.195312 5.53125 -9.28125 Z M 12.890625 -9.28125 "/></g></g></g><g fill="#92b758" fill-opacity="1"><g transform="translate(153.328493, 260.484196)"><g><path d="M 9.28125 -16.3125 C 10.476562 -16.3125 11.566406 -16.070312 12.546875 -15.59375 C 13.523438 -15.113281 14.363281 -14.484375 15.0625 -13.703125 C 15.769531 -12.929688 16.316406 -12.035156 16.703125 -11.015625 C 17.085938 -10.003906 17.28125 -8.96875 17.28125 -7.90625 C 17.28125 -7.257812 17.195312 -6.578125 17.03125 -5.859375 L 5.703125 -5.859375 C 6.128906 -5.128906 6.734375 -4.515625 7.515625 -4.015625 C 8.304688 -3.515625 9.160156 -3.265625 10.078125 -3.265625 C 10.992188 -3.265625 11.796875 -3.335938 12.484375 -3.484375 C 13.179688 -3.640625 13.84375 -3.832031 14.46875 -4.0625 L 15.9375 -1.34375 C 15.144531 -0.789062 14.242188 -0.363281 13.234375 -0.0625 C 12.222656 0.238281 11.140625 0.390625 9.984375 0.390625 C 8.722656 0.390625 7.546875 0.171875 6.453125 -0.265625 C 5.367188 -0.703125 4.421875 -1.296875 3.609375 -2.046875 C 2.804688 -2.796875 2.164062 -3.679688 1.6875 -4.703125 C 1.21875 -5.722656 0.984375 -6.8125 0.984375 -7.96875 C 0.984375 -9.09375 1.195312 -10.160156 1.625 -11.171875 C 2.050781 -12.191406 2.644531 -13.078125 3.40625 -13.828125 C 4.164062 -14.585938 5.046875 -15.191406 6.046875 -15.640625 C 7.046875 -16.085938 8.125 -16.3125 9.28125 -16.3125 Z M 12.890625 -9.28125 C 12.640625 -10.195312 12.179688 -10.941406 11.515625 -11.515625 C 10.859375 -12.097656 10.113281 -12.390625 9.28125 -12.390625 C 8.425781 -12.390625 7.648438 -12.097656 6.953125 -11.515625 C 6.265625 -10.941406 5.789062 -10.195312 5.53125 -9.28125 Z M 12.890625 -9.28125 "/></g></g></g><g fill="#92b758" fill-opacity="1"><g transform="translate(172.363816, 260.484196)"><g><path d="M 9.703125 -15.875 C 10.296875 -15.875 10.953125 -15.785156 11.671875 -15.609375 C 12.398438 -15.441406 13.082031 -15.125 13.71875 -14.65625 C 14.363281 -14.1875 14.90625 -13.535156 15.34375 -12.703125 C 15.78125 -11.867188 16 -10.789062 16 -9.46875 L 16 0 L 11.546875 0 L 11.546875 -9.3125 C 11.546875 -9.800781 11.46875 -10.21875 11.3125 -10.5625 C 11.15625 -10.90625 10.941406 -11.175781 10.671875 -11.375 C 10.398438 -11.582031 10.09375 -11.734375 9.75 -11.828125 C 9.414062 -11.921875 9.078125 -11.96875 8.734375 -11.96875 C 8.453125 -11.96875 8.144531 -11.921875 7.8125 -11.828125 C 7.488281 -11.734375 7.179688 -11.578125 6.890625 -11.359375 C 6.609375 -11.148438 6.367188 -10.875 6.171875 -10.53125 C 5.984375 -10.1875 5.890625 -9.78125 5.890625 -9.3125 L 5.890625 0 L 1.46875 0 L 1.46875 -15.875 L 5.25 -15.875 L 5.890625 -14.65625 C 6.398438 -15.019531 6.972656 -15.3125 7.609375 -15.53125 C 8.253906 -15.757812 8.953125 -15.875 9.703125 -15.875 Z M 9.703125 -15.875 "/></g></g></g><g fill="#92b758" fill-opacity="1"><g transform="translate(189.671562, 260.484196)"><g><path d="M 16.734375 -22.6875 L 21.59375 -22.6875 L 21.59375 0 L 16.734375 0 L 16.734375 -9.765625 L 6.34375 -9.765625 L 6.34375 0 L 1.5 0 L 1.5 -22.6875 L 6.34375 -22.6875 L 6.34375 -14.171875 L 16.734375 -14.171875 Z M 16.734375 -22.6875 "/></g></g></g><g fill="#92b758" fill-opacity="1"><g transform="translate(212.76988, 260.484196)"><g><path d="M 9.25 -16.3125 C 10.375 -16.3125 11.4375 -16.09375 12.4375 -15.65625 C 13.445312 -15.226562 14.320312 -14.632812 15.0625 -13.875 C 15.8125 -13.113281 16.40625 -12.226562 16.84375 -11.21875 C 17.28125 -10.207031 17.5 -9.125 17.5 -7.96875 C 17.5 -6.8125 17.28125 -5.726562 16.84375 -4.71875 C 16.40625 -3.707031 15.8125 -2.820312 15.0625 -2.0625 C 14.320312 -1.300781 13.445312 -0.703125 12.4375 -0.265625 C 11.4375 0.171875 10.375 0.390625 9.25 0.390625 C 8.09375 0.390625 7.015625 0.171875 6.015625 -0.265625 C 5.015625 -0.703125 4.140625 -1.300781 3.390625 -2.0625 C 2.640625 -2.820312 2.046875 -3.707031 1.609375 -4.71875 C 1.171875 -5.726562 0.953125 -6.8125 0.953125 -7.96875 C 0.953125 -9.125 1.171875 -10.207031 1.609375 -11.21875 C 2.046875 -12.226562 2.640625 -13.113281 3.390625 -13.875 C 4.140625 -14.632812 5.015625 -15.226562 6.015625 -15.65625 C 7.015625 -16.09375 8.09375 -16.3125 9.25 -16.3125 Z M 9.25 -3.484375 C 9.78125 -3.484375 10.273438 -3.585938 10.734375 -3.796875 C 11.191406 -4.015625 11.597656 -4.3125 11.953125 -4.6875 C 12.304688 -5.0625 12.582031 -5.507812 12.78125 -6.03125 C 12.988281 -6.550781 13.09375 -7.132812 13.09375 -7.78125 C 13.09375 -8.414062 12.988281 -9.007812 12.78125 -9.5625 C 12.582031 -10.125 12.304688 -10.609375 11.953125 -11.015625 C 11.597656 -11.429688 11.191406 -11.765625 10.734375 -12.015625 C 10.273438 -12.265625 9.78125 -12.390625 9.25 -12.390625 C 8.71875 -12.390625 8.21875 -12.265625 7.75 -12.015625 C 7.28125 -11.765625 6.867188 -11.429688 6.515625 -11.015625 C 6.160156 -10.609375 5.878906 -10.125 5.671875 -9.5625 C 5.472656 -9.007812 5.375 -8.414062 5.375 -7.78125 C 5.375 -7.132812 5.472656 -6.550781 5.671875 -6.03125 C 5.878906 -5.507812 6.160156 -5.0625 6.515625 -4.6875 C 6.867188 -4.3125 7.28125 -4.015625 7.75 -3.796875 C 8.21875 -3.585938 8.71875 -3.484375 9.25 -3.484375 Z M 9.25 -3.484375 "/></g></g></g><g fill="#92b758" fill-opacity="1"><g transform="translate(231.133367, 260.484196)"><g><path d="M 19.109375 -15.875 C 19.679688 -15.875 20.296875 -15.773438 20.953125 -15.578125 C 21.617188 -15.390625 22.234375 -15.050781 22.796875 -14.5625 C 23.359375 -14.070312 23.820312 -13.398438 24.1875 -12.546875 C 24.550781 -11.691406 24.734375 -10.601562 24.734375 -9.28125 L 24.734375 0 L 20.3125 0 L 20.3125 -8.484375 C 20.3125 -9.117188 20.242188 -9.660156 20.109375 -10.109375 C 19.972656 -10.554688 19.785156 -10.914062 19.546875 -11.1875 C 19.316406 -11.46875 19.046875 -11.664062 18.734375 -11.78125 C 18.421875 -11.90625 18.109375 -11.96875 17.796875 -11.96875 C 17.492188 -11.96875 17.191406 -11.910156 16.890625 -11.796875 C 16.597656 -11.691406 16.332031 -11.507812 16.09375 -11.25 C 15.863281 -11 15.675781 -10.648438 15.53125 -10.203125 C 15.394531 -9.753906 15.328125 -9.191406 15.328125 -8.515625 L 15.328125 0 L 10.90625 0 L 10.90625 -8.484375 C 10.90625 -9.785156 10.679688 -10.691406 10.234375 -11.203125 C 9.785156 -11.710938 9.132812 -11.96875 8.28125 -11.96875 C 7.664062 -11.96875 7.113281 -11.675781 6.625 -11.09375 C 6.132812 -10.519531 5.890625 -9.628906 5.890625 -8.421875 L 5.890625 0 L 1.46875 0 L 1.46875 -15.875 L 5.25 -15.875 L 5.890625 -14.40625 C 6.378906 -14.875 6.945312 -15.234375 7.59375 -15.484375 C 8.25 -15.742188 8.953125 -15.875 9.703125 -15.875 C 10.078125 -15.875 10.476562 -15.832031 10.90625 -15.75 C 11.332031 -15.675781 11.75 -15.546875 12.15625 -15.359375 C 12.5625 -15.171875 12.953125 -14.921875 13.328125 -14.609375 C 13.703125 -14.296875 14.039062 -13.90625 14.34375 -13.4375 C 14.59375 -13.84375 14.898438 -14.195312 15.265625 -14.5 C 15.628906 -14.8125 16.023438 -15.066406 16.453125 -15.265625 C 16.878906 -15.472656 17.320312 -15.625 17.78125 -15.71875 C 18.238281 -15.820312 18.679688 -15.875 19.109375 -15.875 Z M 19.109375 -15.875 "/></g></g></g><g fill="#92b758" fill-opacity="1"><g transform="translate(257.238952, 260.484196)"><g><path d="M 9.28125 -16.3125 C 10.476562 -16.3125 11.566406 -16.070312 12.546875 -15.59375 C 13.523438 -15.113281 14.363281 -14.484375 15.0625 -13.703125 C 15.769531 -12.929688 16.316406 -12.035156 16.703125 -11.015625 C 17.085938 -10.003906 17.28125 -8.96875 17.28125 -7.90625 C 17.28125 -7.257812 17.195312 -6.578125 17.03125 -5.859375 L 5.703125 -5.859375 C 6.128906 -5.128906 6.734375 -4.515625 7.515625 -4.015625 C 8.304688 -3.515625 9.160156 -3.265625 10.078125 -3.265625 C 10.992188 -3.265625 11.796875 -3.335938 12.484375 -3.484375 C 13.179688 -3.640625 13.84375 -3.832031 14.46875 -4.0625 L 15.9375 -1.34375 C 15.144531 -0.789062 14.242188 -0.363281 13.234375 -0.0625 C 12.222656 0.238281 11.140625 0.390625 9.984375 0.390625 C 8.722656 0.390625 7.546875 0.171875 6.453125 -0.265625 C 5.367188 -0.703125 4.421875 -1.296875 3.609375 -2.046875 C 2.804688 -2.796875 2.164062 -3.679688 1.6875 -4.703125 C 1.21875 -5.722656 0.984375 -6.8125 0.984375 -7.96875 C 0.984375 -9.09375 1.195312 -10.160156 1.625 -11.171875 C 2.050781 -12.191406 2.644531 -13.078125 3.40625 -13.828125 C 4.164062 -14.585938 5.046875 -15.191406 6.046875 -15.640625 C 7.046875 -16.085938 8.125 -16.3125 9.28125 -16.3125 Z M 12.890625 -9.28125 C 12.640625 -10.195312 12.179688 -10.941406 11.515625 -11.515625 C 10.859375 -12.097656 10.113281 -12.390625 9.28125 -12.390625 C 8.425781 -12.390625 7.648438 -12.097656 6.953125 -11.515625 C 6.265625 -10.941406 5.789062 -10.195312 5.53125 -9.28125 Z M 12.890625 -9.28125 "/></g></g></g><g fill="#484a49" fill-opacity="1"><g transform="translate(148.982543, 273.805235)"><g><path d="M 5.875 -8.515625 L 5.875 -7.375 L 1.921875 -7.375 L 1.921875 -5.0625 L 5.4375 -5.0625 L 5.4375 -3.90625 L 1.921875 -3.90625 L 1.921875 -1.15625 L 5.875 -1.15625 L 5.875 0 L 0.671875 0 L 0.671875 -8.515625 Z M 5.875 -8.515625 "/></g></g></g><g fill="#484a49" fill-opacity="1"><g transform="translate(159.170551, 273.805235)"><g><path d="M 4.6875 -1.046875 C 5.144531 -1.046875 5.570312 -1.15625 5.96875 -1.375 C 6.363281 -1.601562 6.695312 -1.898438 6.96875 -2.265625 L 7.84375 -1.421875 C 7.457031 -0.972656 6.988281 -0.601562 6.4375 -0.3125 C 5.894531 -0.0195312 5.3125 0.125 4.6875 0.125 C 4.101562 0.125 3.554688 0.0078125 3.046875 -0.21875 C 2.535156 -0.457031 2.09375 -0.773438 1.71875 -1.171875 C 1.34375 -1.566406 1.039062 -2.03125 0.8125 -2.5625 C 0.59375 -3.09375 0.484375 -3.65625 0.484375 -4.25 C 0.484375 -4.84375 0.59375 -5.40625 0.8125 -5.9375 C 1.039062 -6.46875 1.34375 -6.929688 1.71875 -7.328125 C 2.09375 -7.722656 2.535156 -8.035156 3.046875 -8.265625 C 3.554688 -8.492188 4.101562 -8.609375 4.6875 -8.609375 C 5.21875 -8.609375 5.71875 -8.503906 6.1875 -8.296875 C 6.664062 -8.085938 7.09375 -7.8125 7.46875 -7.46875 L 6.734375 -6.515625 C 6.472656 -6.796875 6.164062 -7.023438 5.8125 -7.203125 C 5.457031 -7.378906 5.082031 -7.46875 4.6875 -7.46875 C 4.269531 -7.46875 3.882812 -7.378906 3.53125 -7.203125 C 3.175781 -7.035156 2.863281 -6.804688 2.59375 -6.515625 C 2.332031 -6.222656 2.125 -5.878906 1.96875 -5.484375 C 1.8125 -5.097656 1.734375 -4.6875 1.734375 -4.25 C 1.734375 -3.8125 1.8125 -3.394531 1.96875 -3 C 2.125 -2.613281 2.332031 -2.273438 2.59375 -1.984375 C 2.863281 -1.691406 3.175781 -1.460938 3.53125 -1.296875 C 3.882812 -1.128906 4.269531 -1.046875 4.6875 -1.046875 Z M 4.6875 -1.046875 "/></g></g></g><g fill="#484a49" fill-opacity="1"><g transform="translate(171.002572, 273.805235)"><g><path d="M 4.625 -8.625 C 5.195312 -8.625 5.738281 -8.507812 6.25 -8.28125 C 6.757812 -8.050781 7.203125 -7.738281 7.578125 -7.34375 C 7.960938 -6.945312 8.265625 -6.476562 8.484375 -5.9375 C 8.710938 -5.40625 8.828125 -4.847656 8.828125 -4.265625 C 8.828125 -3.660156 8.710938 -3.09375 8.484375 -2.5625 C 8.265625 -2.039062 7.960938 -1.582031 7.578125 -1.1875 C 7.203125 -0.789062 6.753906 -0.472656 6.234375 -0.234375 C 5.722656 -0.00390625 5.179688 0.109375 4.609375 0.109375 C 4.035156 0.109375 3.488281 -0.00390625 2.96875 -0.234375 C 2.457031 -0.472656 2.007812 -0.789062 1.625 -1.1875 C 1.25 -1.582031 0.953125 -2.039062 0.734375 -2.5625 C 0.515625 -3.09375 0.40625 -3.660156 0.40625 -4.265625 C 0.40625 -4.847656 0.515625 -5.40625 0.734375 -5.9375 C 0.953125 -6.476562 1.253906 -6.945312 1.640625 -7.34375 C 2.023438 -7.738281 2.472656 -8.050781 2.984375 -8.28125 C 3.492188 -8.507812 4.039062 -8.625 4.625 -8.625 Z M 4.625 -1.078125 C 5.03125 -1.078125 5.410156 -1.160156 5.765625 -1.328125 C 6.117188 -1.492188 6.425781 -1.71875 6.6875 -2 C 6.957031 -2.289062 7.164062 -2.628906 7.3125 -3.015625 C 7.46875 -3.398438 7.546875 -3.816406 7.546875 -4.265625 C 7.546875 -4.703125 7.46875 -5.113281 7.3125 -5.5 C 7.164062 -5.882812 6.957031 -6.21875 6.6875 -6.5 C 6.425781 -6.789062 6.117188 -7.015625 5.765625 -7.171875 C 5.410156 -7.335938 5.03125 -7.421875 4.625 -7.421875 C 4.21875 -7.421875 3.832031 -7.335938 3.46875 -7.171875 C 3.113281 -7.015625 2.800781 -6.789062 2.53125 -6.5 C 2.269531 -6.21875 2.0625 -5.882812 1.90625 -5.5 C 1.757812 -5.113281 1.6875 -4.703125 1.6875 -4.265625 C 1.6875 -3.816406 1.757812 -3.398438 1.90625 -3.015625 C 2.0625 -2.628906 2.269531 -2.289062 2.53125 -2 C 2.800781 -1.71875 3.113281 -1.492188 3.46875 -1.328125 C 3.832031 -1.160156 4.21875 -1.078125 4.625 -1.078125 Z M 4.625 -1.078125 "/></g></g></g><g fill="#484a49" fill-opacity="1"><g transform="translate(183.806586, 273.805235)"><g><path d="M 0.703125 0 L 0.703125 -8.515625 L 1.96875 -8.515625 L 1.96875 -1.15625 L 5.90625 -1.15625 L 5.90625 0 Z M 0.703125 0 "/></g></g></g><g fill="#484a49" fill-opacity="1"><g transform="translate(193.562602, 273.805235)"><g><path d="M 4.625 -8.625 C 5.195312 -8.625 5.738281 -8.507812 6.25 -8.28125 C 6.757812 -8.050781 7.203125 -7.738281 7.578125 -7.34375 C 7.960938 -6.945312 8.265625 -6.476562 8.484375 -5.9375 C 8.710938 -5.40625 8.828125 -4.847656 8.828125 -4.265625 C 8.828125 -3.660156 8.710938 -3.09375 8.484375 -2.5625 C 8.265625 -2.039062 7.960938 -1.582031 7.578125 -1.1875 C 7.203125 -0.789062 6.753906 -0.472656 6.234375 -0.234375 C 5.722656 -0.00390625 5.179688 0.109375 4.609375 0.109375 C 4.035156 0.109375 3.488281 -0.00390625 2.96875 -0.234375 C 2.457031 -0.472656 2.007812 -0.789062 1.625 -1.1875 C 1.25 -1.582031 0.953125 -2.039062 0.734375 -2.5625 C 0.515625 -3.09375 0.40625 -3.660156 0.40625 -4.265625 C 0.40625 -4.847656 0.515625 -5.40625 0.734375 -5.9375 C 0.953125 -6.476562 1.253906 -6.945312 1.640625 -7.34375 C 2.023438 -7.738281 2.472656 -8.050781 2.984375 -8.28125 C 3.492188 -8.507812 4.039062 -8.625 4.625 -8.625 Z M 4.625 -1.078125 C 5.03125 -1.078125 5.410156 -1.160156 5.765625 -1.328125 C 6.117188 -1.492188 6.425781 -1.71875 6.6875 -2 C 6.957031 -2.289062 7.164062 -2.628906 7.3125 -3.015625 C 7.46875 -3.398438 7.546875 -3.816406 7.546875 -4.265625 C 7.546875 -4.703125 7.46875 -5.113281 7.3125 -5.5 C 7.164062 -5.882812 6.957031 -6.21875 6.6875 -6.5 C 6.425781 -6.789062 6.117188 -7.015625 5.765625 -7.171875 C 5.410156 -7.335938 5.03125 -7.421875 4.625 -7.421875 C 4.21875 -7.421875 3.832031 -7.335938 3.46875 -7.171875 C 3.113281 -7.015625 2.800781 -6.789062 2.53125 -6.5 C 2.269531 -6.21875 2.0625 -5.882812 1.90625 -5.5 C 1.757812 -5.113281 1.6875 -4.703125 1.6875 -4.265625 C 1.6875 -3.816406 1.757812 -3.398438 1.90625 -3.015625 C 2.0625 -2.628906 2.269531 -2.289062 2.53125 -2 C 2.800781 -1.71875 3.113281 -1.492188 3.46875 -1.328125 C 3.832031 -1.160156 4.21875 -1.078125 4.625 -1.078125 Z M 4.625 -1.078125 "/></g></g></g><g fill="#484a49" fill-opacity="1"><g transform="translate(206.366615, 273.805235)"><g><path d="M 5.421875 -4.546875 L 7.734375 -4.546875 L 7.734375 -1.421875 C 7.347656 -0.972656 6.882812 -0.601562 6.34375 -0.3125 C 5.800781 -0.0195312 5.210938 0.125 4.578125 0.125 C 3.992188 0.125 3.445312 0.0078125 2.9375 -0.21875 C 2.425781 -0.457031 1.984375 -0.773438 1.609375 -1.171875 C 1.234375 -1.566406 0.9375 -2.023438 0.71875 -2.546875 C 0.5 -3.078125 0.390625 -3.644531 0.390625 -4.25 C 0.390625 -4.84375 0.5 -5.40625 0.71875 -5.9375 C 0.9375 -6.46875 1.234375 -6.929688 1.609375 -7.328125 C 1.984375 -7.722656 2.425781 -8.035156 2.9375 -8.265625 C 3.445312 -8.492188 3.992188 -8.609375 4.578125 -8.609375 C 5.097656 -8.609375 5.59375 -8.503906 6.0625 -8.296875 C 6.539062 -8.085938 6.96875 -7.816406 7.34375 -7.484375 L 6.59375 -6.546875 C 6.332031 -6.816406 6.023438 -7.035156 5.671875 -7.203125 C 5.328125 -7.378906 4.960938 -7.46875 4.578125 -7.46875 C 4.160156 -7.46875 3.773438 -7.378906 3.421875 -7.203125 C 3.066406 -7.035156 2.753906 -6.804688 2.484375 -6.515625 C 2.222656 -6.222656 2.015625 -5.878906 1.859375 -5.484375 C 1.710938 -5.097656 1.640625 -4.6875 1.640625 -4.25 C 1.640625 -3.8125 1.710938 -3.394531 1.859375 -3 C 2.015625 -2.613281 2.222656 -2.273438 2.484375 -1.984375 C 2.753906 -1.691406 3.066406 -1.460938 3.421875 -1.296875 C 3.773438 -1.128906 4.160156 -1.046875 4.578125 -1.046875 C 4.953125 -1.046875 5.300781 -1.117188 5.625 -1.265625 C 5.957031 -1.410156 6.25 -1.609375 6.5 -1.859375 L 6.5 -3.390625 L 5.421875 -3.390625 Z M 5.421875 -4.546875 "/></g></g></g><g fill="#484a49" fill-opacity="1"><g transform="translate(218.486628, 273.805235)"><g><path d="M 3.109375 -3.984375 L 0.109375 -8.515625 L 1.609375 -8.515625 L 3.734375 -5.3125 L 5.859375 -8.515625 L 7.375 -8.515625 L 4.375 -3.984375 L 4.375 0 L 3.109375 0 Z M 3.109375 -3.984375 "/></g></g></g><g fill="#484a49" fill-opacity="1"><g transform="translate(115.607545, 288.805234)"><g><path d="M 0.703125 0 L 0.703125 -8.515625 L 1.96875 -8.515625 L 1.96875 -1.15625 L 5.90625 -1.15625 L 5.90625 0 Z M 0.703125 0 "/></g></g></g><g fill="#484a49" fill-opacity="1"><g transform="translate(125.363562, 288.805234)"><g><path d="M 5.875 -8.515625 L 5.875 -7.375 L 1.921875 -7.375 L 1.921875 -5.0625 L 5.4375 -5.0625 L 5.4375 -3.90625 L 1.921875 -3.90625 L 1.921875 -1.15625 L 5.875 -1.15625 L 5.875 0 L 0.671875 0 L 0.671875 -8.515625 Z M 5.875 -8.515625 "/></g></g></g><g fill="#484a49" fill-opacity="1"><g transform="translate(135.55157, 288.805234)"><g><path d="M 1.5 0 L 0.125 0 L 3.671875 -8.515625 L 5.046875 -8.515625 L 8.59375 0 L 7.234375 0 L 6.125 -2.65625 L 2.609375 -2.65625 Z M 3.078125 -3.8125 L 5.640625 -3.8125 L 4.375 -6.890625 Z M 3.078125 -3.8125 "/></g></g></g><g fill="#484a49" fill-opacity="1"><g transform="translate(147.935586, 288.805234)"><g><path d="M 0.71875 0 L 0.71875 -8.515625 L 3.75 -8.515625 C 4.363281 -8.515625 4.90625 -8.398438 5.375 -8.171875 C 5.84375 -7.953125 6.234375 -7.648438 6.546875 -7.265625 C 6.867188 -6.878906 7.113281 -6.425781 7.28125 -5.90625 C 7.445312 -5.382812 7.53125 -4.832031 7.53125 -4.25 C 7.53125 -3.65625 7.441406 -3.097656 7.265625 -2.578125 C 7.097656 -2.066406 6.859375 -1.617188 6.546875 -1.234375 C 6.242188 -0.847656 5.882812 -0.546875 5.46875 -0.328125 C 5.050781 -0.109375 4.601562 0 4.125 0 Z M 3.703125 -1.15625 C 4.148438 -1.15625 4.535156 -1.238281 4.859375 -1.40625 C 5.179688 -1.582031 5.445312 -1.8125 5.65625 -2.09375 C 5.863281 -2.375 6.015625 -2.703125 6.109375 -3.078125 C 6.203125 -3.453125 6.25 -3.84375 6.25 -4.25 C 6.25 -4.65625 6.203125 -5.046875 6.109375 -5.421875 C 6.015625 -5.804688 5.863281 -6.140625 5.65625 -6.421875 C 5.457031 -6.710938 5.191406 -6.941406 4.859375 -7.109375 C 4.535156 -7.285156 4.148438 -7.375 3.703125 -7.375 L 1.984375 -7.375 L 1.984375 -1.15625 Z M 3.703125 -1.15625 "/></g></g></g><g fill="#484a49" fill-opacity="1"><g transform="translate(159.671602, 288.805234)"><g><path d="M 9.890625 -8.515625 L 11.296875 -8.515625 L 8.734375 0 L 7.515625 0 L 5.921875 -5.296875 L 5.71875 -6.25 L 5.515625 -5.25 L 3.9375 0 L 2.703125 0 L 0.140625 -8.515625 L 1.53125 -8.515625 L 3.28125 -2.03125 L 5.25 -8.515625 L 6.203125 -8.515625 L 8.15625 -2.09375 Z M 9.890625 -8.515625 "/></g></g></g><g fill="#484a49" fill-opacity="1"><g transform="translate(174.75562, 288.805234)"><g><path d="M 1.5 0 L 0.125 0 L 3.671875 -8.515625 L 5.046875 -8.515625 L 8.59375 0 L 7.234375 0 L 6.125 -2.65625 L 2.609375 -2.65625 Z M 3.078125 -3.8125 L 5.640625 -3.8125 L 4.375 -6.890625 Z M 3.078125 -3.8125 "/></g></g></g><g fill="#484a49" fill-opacity="1"><g transform="translate(187.139637, 288.805234)"><g><path d="M 3.109375 -3.984375 L 0.109375 -8.515625 L 1.609375 -8.515625 L 3.734375 -5.3125 L 5.859375 -8.515625 L 7.375 -8.515625 L 4.375 -3.984375 L 4.375 0 L 3.109375 0 Z M 3.109375 -3.984375 "/></g></g></g><g fill="#484a49" fill-opacity="1"><g transform="translate(198.263649, 288.805234)"><g/></g></g><g fill="#484a49" fill-opacity="1"><g transform="translate(204.995658, 288.805234)"><g><path d="M 6.40625 -8.515625 L 6.40625 -7.375 L 1.921875 -7.375 L 1.921875 -5.0625 L 5.984375 -5.0625 L 5.984375 -3.90625 L 1.921875 -3.90625 L 1.921875 0 L 0.671875 0 L 0.671875 -8.515625 Z M 6.40625 -8.515625 "/></g></g></g><g fill="#484a49" fill-opacity="1"><g transform="translate(215.075671, 288.805234)"><g><path d="M 1.5 0 L 0.125 0 L 3.671875 -8.515625 L 5.046875 -8.515625 L 8.59375 0 L 7.234375 0 L 6.125 -2.65625 L 2.609375 -2.65625 Z M 3.078125 -3.8125 L 5.640625 -3.8125 L 4.375 -6.890625 Z M 3.078125 -3.8125 "/></g></g></g><g fill="#484a49" fill-opacity="1"><g transform="translate(227.459688, 288.805234)"><g><path d="M 7.6875 0 L 6.125 0 L 3.4375 -3.671875 L 1.953125 -3.671875 L 1.953125 0 L 0.703125 0 L 0.703125 -8.515625 L 4.15625 -8.515625 C 4.488281 -8.515625 4.804688 -8.445312 5.109375 -8.3125 C 5.410156 -8.1875 5.671875 -8.015625 5.890625 -7.796875 C 6.109375 -7.578125 6.28125 -7.320312 6.40625 -7.03125 C 6.53125 -6.738281 6.59375 -6.425781 6.59375 -6.09375 C 6.59375 -5.8125 6.550781 -5.546875 6.46875 -5.296875 C 6.382812 -5.054688 6.265625 -4.832031 6.109375 -4.625 C 5.953125 -4.425781 5.765625 -4.253906 5.546875 -4.109375 C 5.328125 -3.960938 5.09375 -3.851562 4.84375 -3.78125 Z M 4.15625 -4.84375 C 4.320312 -4.84375 4.476562 -4.875 4.625 -4.9375 C 4.78125 -5.007812 4.910156 -5.101562 5.015625 -5.21875 C 5.128906 -5.332031 5.21875 -5.46875 5.28125 -5.625 C 5.34375 -5.78125 5.375 -5.945312 5.375 -6.125 C 5.375 -6.300781 5.34375 -6.460938 5.28125 -6.609375 C 5.21875 -6.765625 5.128906 -6.898438 5.015625 -7.015625 C 4.910156 -7.128906 4.78125 -7.21875 4.625 -7.28125 C 4.476562 -7.351562 4.320312 -7.390625 4.15625 -7.390625 L 1.953125 -7.390625 L 1.953125 -4.84375 Z M 4.15625 -4.84375 "/></g></g></g><g fill="#484a49" fill-opacity="1"><g transform="translate(238.931702, 288.805234)"><g><path d="M 7.921875 -8.515625 L 9.1875 -8.515625 L 9.1875 0 L 7.9375 0 L 7.9375 -6.53125 L 5.453125 -3.109375 L 4.46875 -3.109375 L 1.984375 -6.53125 L 1.984375 0 L 0.71875 0 L 0.71875 -8.515625 L 1.984375 -8.515625 L 4.953125 -4.421875 Z M 7.921875 -8.515625 "/></g></g></g><g fill="#484a49" fill-opacity="1"><g transform="translate(252.431725, 288.805234)"><g><path d="M 6.34375 -2.390625 C 6.34375 -2.023438 6.269531 -1.6875 6.125 -1.375 C 5.988281 -1.070312 5.78125 -0.804688 5.5 -0.578125 C 4.945312 -0.109375 4.238281 0.125 3.375 0.125 C 2.695312 0.125 2.085938 -0.0078125 1.546875 -0.28125 C 1.003906 -0.5625 0.601562 -0.9375 0.34375 -1.40625 L 1.421875 -1.953125 C 1.578125 -1.671875 1.828125 -1.453125 2.171875 -1.296875 C 2.523438 -1.140625 2.925781 -1.0625 3.375 -1.0625 C 4.53125 -1.0625 5.109375 -1.503906 5.109375 -2.390625 C 5.109375 -2.554688 5.078125 -2.695312 5.015625 -2.8125 C 4.960938 -2.9375 4.875 -3.050781 4.75 -3.15625 C 4.457031 -3.394531 3.941406 -3.609375 3.203125 -3.796875 C 2.753906 -3.910156 2.375 -4.035156 2.0625 -4.171875 C 1.75 -4.304688 1.488281 -4.46875 1.28125 -4.65625 C 0.78125 -5.0625 0.53125 -5.601562 0.53125 -6.28125 C 0.53125 -6.613281 0.59375 -6.925781 0.71875 -7.21875 C 0.851562 -7.507812 1.039062 -7.765625 1.28125 -7.984375 C 1.53125 -8.191406 1.820312 -8.347656 2.15625 -8.453125 C 2.488281 -8.566406 2.851562 -8.625 3.25 -8.625 C 3.832031 -8.625 4.367188 -8.507812 4.859375 -8.28125 C 5.359375 -8.0625 5.734375 -7.75 5.984375 -7.34375 L 5.015625 -6.75 C 4.785156 -7.019531 4.515625 -7.210938 4.203125 -7.328125 C 3.898438 -7.453125 3.582031 -7.515625 3.25 -7.515625 C 3.007812 -7.515625 2.789062 -7.472656 2.59375 -7.390625 C 2.394531 -7.304688 2.226562 -7.210938 2.09375 -7.109375 C 1.976562 -7.003906 1.894531 -6.882812 1.84375 -6.75 C 1.789062 -6.613281 1.765625 -6.460938 1.765625 -6.296875 C 1.765625 -6.191406 1.78125 -6.082031 1.8125 -5.96875 C 1.84375 -5.863281 1.914062 -5.753906 2.03125 -5.640625 C 2.15625 -5.523438 2.332031 -5.410156 2.5625 -5.296875 C 2.800781 -5.191406 3.117188 -5.085938 3.515625 -4.984375 C 3.992188 -4.867188 4.394531 -4.738281 4.71875 -4.59375 C 5.050781 -4.457031 5.332031 -4.296875 5.5625 -4.109375 C 6.082031 -3.671875 6.34375 -3.097656 6.34375 -2.390625 Z M 6.34375 -2.390625 "/></g></g></g></svg>